<svg xmlns="http://www.w3.org/2000/svg" width="96" height="96" viewBox="0 0 96 96">
  <g fill="none" stroke="#0f172a" stroke-width="3.5" stroke-linecap="round" stroke-linejoin="round">
    <path d="M12 56V38a6 6 0 0 1 6-6h34a6 6 0 0 1 6 6v18"/>
    <path d="M58 42h12a8 8 0 0 1 7.3 4.8L82 58H58V42Z"/>
    <path d="M24 56h52"/>
    <circle cx="28" cy="64" r="6"/>
    <circle cx="72" cy="64" r="6"/>
    <path d="M40 38v10"/>
    <path d="M35 43h10"/>
    <path d="M65 48h8"/>
    <path d="M12 56v6a6 6 0 0 0 6 6h6"/>
    <path d="M78 68h4a6 6 0 0 0 6-6v-4"/>
  </g>
</svg>

